<svg viewBox="0 0 40 40" fill="none" xmlns="http://www.w3.org/2000/svg">
  <path d="M21 37C21 30 19 24 18 19C17 14 18 9 21 6" stroke="#2d5a30" stroke-width="1.4" stroke-linecap="round"/>
  <path d="M18 26C15 25 12.5 22.5 12 19C14 21 16.5 23.5 18 26Z" fill="#4a9450"/>
  <path d="M18 21C15 19.5 12 16.5 12 13C14 15 16 18 18 21Z" fill="#4a9450"/>
  <path d="M18.5 16C15.5 14 14.5 10 16 7.5C17 10 17.5 13 18.5 16Z" fill="#5aaa60"/>
  <path d="M20.5 26C23.5 25 26.5 22.5 26.5 19C24.5 21 22 23.5 20.5 26Z" fill="#4a9450"/>
  <path d="M20.5 21C23.5 19.5 26 16.5 26 13C24 15 22 18 20.5 21Z" fill="#4a9450"/>
  <path d="M20.5 16C23.5 14 24.5 10 22.5 7.5C21.5 10 21 13 20.5 16Z" fill="#5aaa60"/>
</svg>
