<svg viewBox="0 0 40 40" fill="none" xmlns="http://www.w3.org/2000/svg">
  <path d="M20 38C20 32 20 26 20 22" stroke="#4a7a35" stroke-width="1.5" stroke-linecap="round"/>
  <path d="M20 30C17 29 14 26 15 23C17 25 18.5 27.5 20 30Z" fill="#5a9a40"/>
  <ellipse cx="20" cy="14" rx="3.5" ry="6.5" fill="#e06888"/>
  <ellipse cx="20" cy="14" rx="3.5" ry="6.5" fill="#e06888" transform="rotate(60 20 14)"/>
  <ellipse cx="20" cy="14" rx="3.5" ry="6.5" fill="#e06888" transform="rotate(120 20 14)"/>
  <ellipse cx="20" cy="14" rx="3.5" ry="6.5" fill="#e87898" transform="rotate(30 20 14)"/>
  <ellipse cx="20" cy="14" rx="3.5" ry="6.5" fill="#e87898" transform="rotate(90 20 14)"/>
  <ellipse cx="20" cy="14" rx="3.5" ry="6.5" fill="#e87898" transform="rotate(150 20 14)"/>
  <circle cx="20" cy="14" r="4.5" fill="#f5c030"/>
  <circle cx="20" cy="14" r="2.8" fill="#e8980a"/>
</svg>
