<svg viewBox="0 0 40 40" fill="none" xmlns="http://www.w3.org/2000/svg">
  <path d="M14 36C14 30 14.5 24 15 18" stroke="#6a7a50" stroke-width="1.4" stroke-linecap="round"/>
  <path d="M20 36C20 29 20 22 20 15" stroke="#6a7a50" stroke-width="1.4" stroke-linecap="round"/>
  <path d="M26 36C26 30 25.5 24 25 18" stroke="#6a7a50" stroke-width="1.4" stroke-linecap="round"/>
  <path d="M12 17C13 14 14 11 15 8" stroke="#8a6baa" stroke-width="3.5" stroke-linecap="round"/>
  <path d="M18.5 14C19 11 19.5 8 20 5" stroke="#9a7bba" stroke-width="3.5" stroke-linecap="round"/>
  <path d="M28 17C27 14 26 11 25 8" stroke="#8a6baa" stroke-width="3.5" stroke-linecap="round"/>
  <circle cx="15" cy="8" r="1.8" fill="#b08ad0"/>
  <circle cx="13" cy="13" r="1.5" fill="#a07ac0"/>
  <circle cx="20" cy="5" r="1.8" fill="#b08ad0"/>
  <circle cx="20" cy="10" r="1.5" fill="#a07ac0"/>
  <circle cx="25" cy="8" r="1.8" fill="#b08ad0"/>
  <circle cx="27" cy="13" r="1.5" fill="#a07ac0"/>
  <path d="M17 23C14 22 11 19 13 17" stroke="#6a7a50" stroke-width="1" stroke-linecap="round" fill="none"/>
  <path d="M23 23C26 22 29 19 27 17" stroke="#6a7a50" stroke-width="1" stroke-linecap="round" fill="none"/>
</svg>
