<svg viewBox="0 0 40 40" fill="none" xmlns="http://www.w3.org/2000/svg">
  <!-- Stems -->
  <path d="M19 38C19 33 18.5 28 18 23" stroke="#4a7a35" stroke-width="1.4" stroke-linecap="round"/>
  <path d="M19 38C20.5 33 22.5 29 25 25" stroke="#4a7a35" stroke-width="1.2" stroke-linecap="round"/>
  <!-- Leaf -->
  <path d="M19 31C16 30 13 27 14 24C16 26 18 28.5 19 31Z" fill="#5a9a40"/>
  <!-- Main daisy petals -->
  <ellipse cx="18" cy="12" rx="2.2" ry="5" fill="#f8f8f5"/>
  <ellipse cx="18" cy="12" rx="2.2" ry="5" fill="#f8f8f5" transform="rotate(45 18 18)"/>
  <ellipse cx="18" cy="12" rx="2.2" ry="5" fill="#f5f5f0" transform="rotate(90 18 18)"/>
  <ellipse cx="18" cy="12" rx="2.2" ry="5" fill="#f5f5f0" transform="rotate(135 18 18)"/>
  <ellipse cx="18" cy="24" rx="2.2" ry="5" fill="#f8f8f5"/>
  <ellipse cx="18" cy="24" rx="2.2" ry="5" fill="#f8f8f5" transform="rotate(45 18 18)"/>
  <ellipse cx="18" cy="24" rx="2.2" ry="5" fill="#f5f5f0" transform="rotate(90 18 18)"/>
  <ellipse cx="18" cy="24" rx="2.2" ry="5" fill="#f5f5f0" transform="rotate(135 18 18)"/>
  <!-- Center -->
  <circle cx="18" cy="18" r="5" fill="#f5c030"/>
  <circle cx="18" cy="18" r="3.2" fill="#e8980a"/>
  <!-- Small daisy (top right) -->
  <ellipse cx="27" cy="13" rx="1.5" ry="3.5" fill="#f8f8f5"/>
  <ellipse cx="27" cy="13" rx="1.5" ry="3.5" fill="#f5f5f0" transform="rotate(60 27 18)"/>
  <ellipse cx="27" cy="13" rx="1.5" ry="3.5" fill="#f5f5f0" transform="rotate(120 27 18)"/>
  <ellipse cx="27" cy="23" rx="1.5" ry="3.5" fill="#f8f8f5"/>
  <ellipse cx="27" cy="23" rx="1.5" ry="3.5" fill="#f5f5f0" transform="rotate(60 27 18)"/>
  <ellipse cx="27" cy="23" rx="1.5" ry="3.5" fill="#f5f5f0" transform="rotate(120 27 18)"/>
  <circle cx="27" cy="18" r="3.5" fill="#f5c030"/>
  <circle cx="27" cy="18" r="2.2" fill="#e8980a"/>
</svg>
