<svg viewBox="0 0 40 40" fill="none" xmlns="http://www.w3.org/2000/svg">
  <path d="M9 33L6 22L13 11L24 9L35 18L33 33Z" fill="#a05840"/>
  <path d="M9 33L6 22L13 11L24 9L35 18L33 33Z" stroke="#803828" stroke-width="0.8" stroke-linejoin="round"/>
  <path d="M6 22L13 11L18 20Z" fill="#c07050" opacity="0.7"/>
  <path d="M13 11L24 9L18 20Z" fill="#b06040" opacity="0.6"/>
  <path d="M24 9L35 18L25 22Z" fill="#903830" opacity="0.6"/>
  <path d="M6 22L18 20L9 33Z" fill="#803828" opacity="0.4"/>
  <path d="M25 22L35 18L33 33Z" fill="#803828" opacity="0.5"/>
  <path d="M12 28C15 24 19 22 23 23C26 24 29 27 30 30" stroke="#c07858" stroke-width="1" stroke-linecap="round" opacity="0.5" fill="none"/>
</svg>
