<svg viewBox="0 0 40 40" fill="none" xmlns="http://www.w3.org/2000/svg">
  <circle cx="20" cy="27" r="2.5" fill="#3a6a30"/>
  <path d="M20 27C17.5 21 13 15 7 12" stroke="#5a9a4a" stroke-width="2" stroke-linecap="round"/>
  <path d="M20 27C16 20 14 13 15.5 6" stroke="#6aaa5a" stroke-width="1.8" stroke-linecap="round"/>
  <path d="M20 27C21 20 23 13 22 6" stroke="#6aaa5a" stroke-width="1.8" stroke-linecap="round"/>
  <path d="M20 27C22.5 21 27 15 33 12" stroke="#5a9a4a" stroke-width="2" stroke-linecap="round"/>
  <path d="M20 27C15 23 9 21 4 23" stroke="#4a8a3a" stroke-width="1.8" stroke-linecap="round"/>
  <path d="M20 27C25 23 31 21 36 23" stroke="#4a8a3a" stroke-width="1.8" stroke-linecap="round"/>
  <path d="M20 27C17.5 21 13 15 7 12" stroke="#c8dfa0" stroke-width="0.7" stroke-linecap="round"/>
  <path d="M20 27C22.5 21 27 15 33 12" stroke="#c8dfa0" stroke-width="0.7" stroke-linecap="round"/>
</svg>
